<?xml version="1.0" standalone="no"?>
<!DOCTYPE svg PUBLIC "-//W3C//DTD SVG 20010904//EN"
 "http://www.w3.org/TR/2001/REC-SVG-20010904/DTD/svg10.dtd">
<svg version="1.0" xmlns="http://www.w3.org/2000/svg"
 width="256.000000pt" height="256.000000pt" viewBox="0 0 256.000000 256.000000"
 preserveAspectRatio="xMidYMid meet">
<metadata>
Created by potrace 1.11, written by Peter Selinger 2001-2013
</metadata>
<g transform="translate(0.000000,256.000000) scale(0.100000,-0.100000)"
fill="#000000" stroke="none">
<path d="M149 2138 c-1 -4 -2 -14 -3 -20 -5 -29 36 -84 75 -101 21 -9 45 -17
52 -17 19 -1 90 -35 113 -56 12 -11 39 -53 61 -94 43 -81 106 -198 173 -325
23 -44 55 -102 70 -130 15 -27 55 -104 90 -170 34 -66 66 -124 70 -130 4 -5
40 -73 80 -150 40 -77 85 -162 100 -190 15 -27 48 -90 75 -138 48 -90 69 -108
114 -100 28 5 42 18 63 58 8 17 30 57 48 90 36 67 98 183 158 295 21 41 56
105 76 143 236 440 233 433 215 485 -21 57 -98 84 -151 52 -40 -24 -42 -27
-153 -235 -26 -49 -60 -112 -75 -140 -15 -27 -47 -87 -71 -132 -24 -46 -46
-79 -50 -75 -7 7 -44 77 -170 318 -125 241 -214 412 -266 509 -29 55 -68 129
-85 164 -50 99 -40 96 -345 97 -145 0 -264 -3 -264 -8z"/>
<path d="M1863 2137 c-50 -22 -49 -14 -49 -737 1 -662 1 -675 -19 -696 -16
-17 -72 -43 -105 -49 -23 -4 -50 -18 -50 -26 0 -5 -6 -9 -14 -9 -14 0 -37 -46
-41 -83 l-3 -22 407 0 406 0 -2 39 c-2 25 -10 45 -25 58 -28 24 -78 51 -78 42
0 -4 -7 -1 -15 6 -8 7 -15 9 -15 6 0 -4 -14 1 -32 11 -67 38 -63 -7 -63 653
l1 599 22 24 c12 12 47 31 79 42 32 11 64 25 71 32 7 7 17 13 21 13 15 0 43
62 37 84 l-5 22 -255 0 c-139 0 -262 -4 -273 -9z"/>
<path d="M447 1589 c-27 -14 -39 -28 -46 -56 -7 -23 -11 -186 -11 -419 l0
-381 -22 -21 c-13 -11 -54 -32 -91 -45 -76 -28 -104 -48 -122 -91 -27 -63 -39
-61 340 -61 189 0 347 3 350 7 14 13 -17 79 -48 102 -18 12 -60 33 -94 45
-104 38 -96 5 -98 454 -1 254 -5 401 -12 417 -14 33 -30 46 -74 58 -28 7 -42
6 -72 -9z"/>
</g>
</svg>
